<svg width="20" height="20" viewBox="0 0 24 24" fill="currentColor" xmlns="http://www.w3.org/2000/svg">
  <path d="M17.05 20.28c-.98.95-2.05 1.71-3.1 1.71-1.04 0-1.41-.64-2.63-.64-1.25 0-1.65.62-2.61.64-1.12.02-2.31-.92-3.26-1.89-2.02-2-3.41-5.74-3.41-8.15 0-3.66 2.31-5.61 4.51-5.61 1.13 0 2.21.65 2.85.65.65 0 1.96-.81 3.32-.81 1.62 0 3.03.88 3.86 2.15-3.12 1.83-2.63 5.4 0 6.63-.65 1.63-1.5 3.32-2.73 4.28zm-5.38-16.71c0-1.65 1.34-2.99 3-2.99.1 0 .19 0 .28.01.01 1.66-1.32 2.98-2.97 2.98-.1 0-.21 0-.31-.01v.01z"/>
</svg>
